<?xml version="1.0" encoding="utf-8"?>
<!-- Generator: Adobe Illustrator 27.5.0, SVG Export Plug-In . SVG Version: 6.00 Build 0)  -->
<svg version="1.1" xmlns="http://www.w3.org/2000/svg" xmlns:xlink="http://www.w3.org/1999/xlink" x="0px" y="0px"
	 viewBox="0 0 500 500" style="enable-background:new 0 0 500 500;" xml:space="preserve">
<g id="Background_Simple">
	<g>
		<path style="fill:#C6FF00;" d="M35.515,215.394c0,0-8.298,80.026,50.792,146.334c59.089,66.308,150.482,88.549,224.2,108.517
			c73.718,19.967,136.627-10.713,153.943-72.701c17.317-61.988-36.984-92.102-57.924-170.822
			c-20.94-78.72-14.939-102.011-74.116-159.719C273.232,9.295,167.386,16.194,103.414,81.872S35.515,215.394,35.515,215.394z"/>
		<path style="opacity:0.7;fill:#FFFFFF;" d="M35.515,215.394c0,0-8.298,80.026,50.792,146.334
			c59.089,66.308,150.482,88.549,224.2,108.517c73.718,19.967,136.627-10.713,153.943-72.701
			c17.317-61.988-36.984-92.102-57.924-170.822c-20.94-78.72-14.939-102.011-74.116-159.719
			C273.232,9.295,167.386,16.194,103.414,81.872S35.515,215.394,35.515,215.394z"/>
	</g>
</g>
<g id="Icons">
	<g>
		<polyline style="fill:none;stroke:#263238;stroke-linecap:round;stroke-linejoin:round;stroke-miterlimit:10;" points="
			126.725,74.924 252.52,280.439 405.376,135.628 		"/>
		<polyline style="fill:none;stroke:#263238;stroke-linecap:round;stroke-linejoin:round;stroke-miterlimit:10;" points="
			60.583,289.789 252.52,280.439 112.829,221.198 		"/>
		<polyline style="fill:none;stroke:#263238;stroke-linecap:round;stroke-linejoin:round;stroke-miterlimit:10;" points="
			283.328,50.579 254.773,285.281 429.949,320.035 		"/>
		<polyline style="fill:none;stroke:#263238;stroke-linecap:round;stroke-linejoin:round;stroke-miterlimit:10;" points="
			115.754,426.712 252.52,280.439 394.405,387.95 		"/>
	</g>
	<g>
		<g id="XMLID_105_">
			<g id="XMLID_106_">
				<path style="fill:#263238;" d="M56.309,263.796c-13.457,0-24.404,10.948-24.404,24.404c0,13.456,10.947,24.404,24.404,24.404
					c13.457,0,24.404-10.948,24.404-24.404C80.713,274.744,69.766,263.796,56.309,263.796z"/>
			</g>
		</g>
		<g id="XMLID_100_">
			<path id="XMLID_102_" style="fill-rule:evenodd;clip-rule:evenodd;fill:#FFFFFF;" d="M71.253,287.573
				c-0.19-7.493-6.361-13.508-13.959-13.508c-7.506,0-13.625,5.878-13.952,13.253c-0.007,0.202-0.013,0.405-0.013,0.608
				c0,2.622,0.732,5.067,2,7.16l-2.517,7.434l7.735-2.458c2.001,1.098,4.302,1.726,6.747,1.726c7.715,0,13.965-6.205,13.965-13.861
				C71.26,287.808,71.26,287.691,71.253,287.573z M57.294,299.577c-2.386,0-4.603-0.706-6.459-1.929l-4.511,1.439l1.464-4.328
				c-1.406-1.922-2.236-4.282-2.236-6.833c0-0.379,0.02-0.758,0.059-1.131c0.575-5.898,5.597-10.52,11.683-10.52
				c6.166,0,11.233,4.74,11.703,10.742c0.026,0.301,0.039,0.601,0.039,0.909C69.037,294.353,63.767,299.577,57.294,299.577z"/>
			<path id="XMLID_101_" style="fill-rule:evenodd;clip-rule:evenodd;fill:#FFFFFF;" d="M63.695,290.724
				c-0.347-0.17-2.027-0.994-2.341-1.105c-0.314-0.118-0.543-0.17-0.772,0.17c-0.229,0.34-0.889,1.105-1.085,1.327
				c-0.203,0.229-0.399,0.255-0.745,0.085c-0.34-0.17-1.445-0.523-2.752-1.687c-1.013-0.896-1.707-2.007-1.903-2.347
				c-0.196-0.34-0.02-0.523,0.15-0.693c0.157-0.157,0.34-0.399,0.516-0.595c0.046-0.059,0.085-0.111,0.124-0.164
				c0.078-0.124,0.137-0.242,0.216-0.405c0.118-0.229,0.059-0.425-0.026-0.595c-0.085-0.17-0.771-1.844-1.059-2.524
				c-0.281-0.68-0.569-0.562-0.771-0.562c-0.196,0-0.425-0.032-0.654-0.032c-0.229,0-0.601,0.085-0.915,0.425
				c-0.314,0.34-1.197,1.164-1.197,2.838c0,0.392,0.072,0.785,0.177,1.157c0.346,1.196,1.092,2.183,1.223,2.354
				c0.17,0.222,2.367,3.766,5.845,5.132c3.485,1.354,3.485,0.902,4.113,0.844c0.628-0.053,2.027-0.817,2.308-1.615
				c0.288-0.791,0.288-1.471,0.203-1.615C64.264,290.979,64.035,290.894,63.695,290.724z"/>
		</g>
	</g>
	<g>
		<g id="XMLID_98_">
			<g id="XMLID_99_">
				<path style="fill:#263238;" d="M120.994,46.644c-13.457,0-24.405,10.948-24.405,24.404c0,13.456,10.948,24.404,24.404,24.404
					h0.001c13.456,0,24.403-10.948,24.403-24.404C145.397,57.592,134.45,46.644,120.994,46.644z"/>
			</g>
		</g>
		<g id="XMLID_94_">
			<path id="XMLID_96_" style="fill:#FFFFFF;" d="M136.484,63.216c-0.372-1.4-1.467-2.503-2.859-2.877
				c-2.521-0.68-12.632-0.68-12.632-0.68s-10.111,0-12.632,0.68c-1.391,0.374-2.487,1.477-2.859,2.877
				c-0.675,2.538-0.675,7.833-0.675,7.833s0,5.295,0.675,7.833c0.372,1.4,1.467,2.503,2.859,2.877
				c2.521,0.68,12.632,0.68,12.632,0.68s10.111,0,12.632-0.68c1.391-0.374,2.487-1.477,2.859-2.877
				c0.676-2.538,0.676-7.833,0.676-7.833S137.16,65.753,136.484,63.216z"/>
			<polygon id="XMLID_95_" style="fill:#263238;" points="117.687,75.856 117.687,66.241 126.137,71.049 			"/>
		</g>
	</g>
	<g>
		<g id="XMLID_92_">
			<g id="XMLID_93_">
				<path style="fill:#263238;" d="M117.525,395.967c-17.645,0-32.001,14.356-32.001,32.001s14.356,32.001,32.001,32.001
					c17.646,0,32.001-14.356,32.001-32.001S135.171,395.967,117.525,395.967z"/>
			</g>
		</g>
		<path id="XMLID_91_" style="fill:#FFFFFF;" d="M112.139,448.522h8.277v-20.729h5.775l0.616-6.941h-6.391c0,0,0-2.591,0-3.953
			c0-1.636,0.329-2.283,1.911-2.283c1.273,0,4.48,0,4.48,0v-7.203c0,0-4.723,0-5.732,0c-6.159,0-8.937,2.713-8.937,7.905
			c0,4.523,0,5.534,0,5.534h-4.306v7.027h4.306V448.522z"/>
	</g>
	<g>
		<g id="XMLID_89_">
			<g id="XMLID_90_">
				<path style="fill:#263238;" d="M395.261,364.11c-13.457,0-24.405,10.947-24.405,24.404c0,13.457,10.948,24.404,24.405,24.404
					c13.456,0,24.404-10.947,24.404-24.404C419.665,375.057,408.717,364.11,395.261,364.11z"/>
			</g>
		</g>
		<g id="XMLID_81_">
			<path id="XMLID_86_" style="fill:#FFFFFF;" d="M395.26,376.858c3.797,0,4.246,0.014,5.746,0.083
				c1.386,0.063,2.139,0.295,2.64,0.49c0.664,0.258,1.137,0.566,1.635,1.064c0.498,0.498,0.805,0.971,1.064,1.635
				c0.195,0.501,0.426,1.254,0.49,2.641c0.068,1.499,0.083,1.949,0.083,5.745c0,3.797-0.015,4.246-0.083,5.745
				c-0.063,1.387-0.295,2.139-0.49,2.64c-0.258,0.664-0.566,1.138-1.064,1.635c-0.497,0.498-0.971,0.806-1.635,1.064
				c-0.501,0.195-1.254,0.427-2.64,0.49c-1.499,0.068-1.949,0.083-5.746,0.083c-3.797,0-4.246-0.015-5.745-0.083
				c-1.386-0.063-2.139-0.295-2.64-0.49c-0.664-0.258-1.137-0.566-1.635-1.064c-0.497-0.497-0.806-0.971-1.063-1.635
				c-0.195-0.501-0.426-1.253-0.49-2.64c-0.068-1.499-0.083-1.949-0.083-5.745c0-3.797,0.014-4.246,0.083-5.745
				c0.063-1.387,0.295-2.139,0.49-2.641c0.258-0.664,0.566-1.137,1.063-1.635c0.498-0.498,0.971-0.806,1.635-1.064
				c0.501-0.195,1.254-0.426,2.64-0.49C391.014,376.872,391.464,376.858,395.26,376.858 M395.26,374.296
				c-3.862,0-4.346,0.016-5.862,0.086c-1.513,0.069-2.547,0.31-3.451,0.661c-0.935,0.363-1.728,0.85-2.519,1.64
				c-0.791,0.791-1.277,1.584-1.64,2.518c-0.352,0.905-0.592,1.938-0.661,3.451c-0.069,1.517-0.086,2.001-0.086,5.862
				c0,3.862,0.016,4.346,0.086,5.862c0.069,1.513,0.309,2.547,0.661,3.451c0.363,0.935,0.849,1.728,1.64,2.519
				c0.791,0.79,1.583,1.276,2.519,1.64c0.904,0.351,1.938,0.592,3.451,0.661c1.517,0.069,2.001,0.085,5.862,0.085
				c3.862,0,4.346-0.016,5.862-0.085c1.513-0.069,2.547-0.31,3.451-0.661c0.935-0.363,1.728-0.85,2.518-1.64
				c0.79-0.791,1.277-1.584,1.64-2.519c0.351-0.904,0.592-1.938,0.661-3.451c0.069-1.517,0.085-2.001,0.085-5.862
				c0-3.862-0.016-4.346-0.085-5.862c-0.069-1.513-0.31-2.547-0.661-3.451c-0.363-0.935-0.85-1.728-1.64-2.518
				c-0.791-0.79-1.583-1.277-2.518-1.64c-0.905-0.351-1.938-0.592-3.451-0.661C399.606,374.312,399.122,374.296,395.26,374.296"/>
			<path id="XMLID_83_" style="fill:#FFFFFF;" d="M395.26,381.213c-4.032,0-7.301,3.269-7.301,7.301
				c0,4.032,3.269,7.301,7.301,7.301c4.032,0,7.301-3.269,7.301-7.301C402.562,384.482,399.293,381.213,395.26,381.213
				 M395.26,393.254c-2.618,0-4.739-2.122-4.739-4.74c0-2.618,2.122-4.74,4.739-4.74c2.618,0,4.74,2.122,4.74,4.74
				C400,391.132,397.878,393.254,395.26,393.254"/>
			<path id="XMLID_82_" style="fill:#FFFFFF;" d="M404.557,380.924c0,0.942-0.764,1.706-1.706,1.706
				c-0.943,0-1.707-0.764-1.707-1.706c0-0.942,0.764-1.706,1.707-1.706C403.793,379.218,404.557,379.982,404.557,380.924"/>
		</g>
	</g>
	<g>
		<g id="XMLID_67_">
			<g id="XMLID_68_">
				<path style="fill:#263238;stroke:#263238;stroke-linecap:round;stroke-linejoin:round;stroke-miterlimit:10;" d="
					M404.178,169.643L404.178,169.643c-20.421,0-36.975-16.554-36.975-36.975l0,0c0-20.421,16.554-36.975,36.975-36.975l0,0
					c20.421,0,36.975,16.554,36.975,36.975l0,0C441.153,153.089,424.599,169.643,404.178,169.643z"/>
			</g>
		</g>
		<path id="XMLID_66_" style="fill:#FFFFFF;" d="M384.478,145.046c3.577,2.294,7.826,3.632,12.391,3.632
			c15.008,0,23.487-12.676,22.976-24.046c1.579-1.139,2.95-2.562,4.033-4.185c-1.45,0.643-3.009,1.078-4.642,1.273
			c1.668-0.998,2.95-2.583,3.553-4.472c-1.562,0.927-3.292,1.6-5.132,1.963c-1.475-1.571-3.576-2.552-5.902-2.552
			c-5.217,0-9.052,4.869-7.874,9.925c-6.718-0.337-12.675-3.555-16.66-8.447c-2.118,3.634-1.099,8.388,2.502,10.793
			c-1.326-0.041-2.574-0.406-3.663-1.011c-0.087,3.746,2.596,7.248,6.484,8.029c-1.138,0.31-2.384,0.38-3.649,0.138
			c1.027,3.213,4.012,5.548,7.551,5.614C393.048,144.363,388.766,145.553,384.478,145.046z"/>
	</g>
	<g>
		<g>
			<g id="XMLID_24_">
				<g id="XMLID_65_">
					<path style="fill:#808080;" d="M114.149,200.728c-10.627,0-19.271,8.645-19.271,19.271c0,10.627,8.645,19.271,19.271,19.271
						c10.626,0,19.271-8.645,19.271-19.271C133.42,209.373,124.775,200.728,114.149,200.728z"/>
				</g>
			</g>
		</g>
		<g id="XMLID_1434_">
			<g id="XMLID_1436_">
				<rect id="XMLID_1438_" x="104.292" y="214.952" style="fill:#FFFFFF;" width="4.238" height="13.691"/>
				<path id="XMLID_1437_" style="fill:#FFFFFF;" d="M106.391,213.16c1.384,0,2.506-1.132,2.506-2.527
					c0-1.395-1.122-2.526-2.506-2.526c-1.384,0-2.506,1.131-2.506,2.526C103.885,212.027,105.007,213.16,106.391,213.16z"/>
			</g>
			<path id="XMLID_1435_" style="fill:#FFFFFF;" d="M115.305,221.457c0-1.924,0.886-3.072,2.582-3.072
				c1.558,0,2.307,1.101,2.307,3.072c0,1.972,0,7.187,0,7.187h4.218c0,0,0-5.001,0-8.669c0-3.667-2.079-5.44-4.981-5.44
				c-2.904,0-4.126,2.262-4.126,2.262v-1.844h-4.065v13.691h4.065C115.305,228.644,115.305,223.566,115.305,221.457z"/>
		</g>
	</g>
	<g>
		<g id="XMLID_79_">
			<path id="XMLID_80_" style="fill:#808080;" d="M428.944,337.335L428.944,337.335c-11.064,0-20.033-8.969-20.033-20.033l0,0
				c0-11.064,8.969-20.033,20.033-20.033h0c11.064,0,20.033,8.969,20.033,20.033l0,0
				C448.977,328.366,440.007,337.335,428.944,337.335z"/>
		</g>
		<g id="XMLID_69_">
			<path id="XMLID_75_" style="fill:#FFFFFF;" d="M425.953,324.922c0.609-0.126,1.137-0.361,1.585-0.704
				c0.396-0.298,0.728-0.666,0.993-1.103c0.416-0.661,0.624-1.406,0.624-2.237c0-0.805-0.182-1.491-0.546-2.055
				c-0.365-0.565-0.905-0.977-1.621-1.238c0.471-0.241,0.828-0.507,1.07-0.799c0.432-0.52,0.65-1.209,0.65-2.065
				c0-0.831-0.215-1.545-0.644-2.141c-0.713-0.97-1.925-1.468-3.635-1.494h-6.78v14.027h6.321
				C424.683,325.112,425.345,325.049,425.953,324.922z M420.448,313.521h3.052c0.672,0,1.224,0.073,1.658,0.219
				c0.503,0.209,0.754,0.64,0.754,1.294c0,0.59-0.19,1.001-0.571,1.232c-0.379,0.232-0.874,0.347-1.484,0.347h-3.409V313.521z
				 M420.448,322.676v-3.739h3.452c0.603,0.006,1.07,0.085,1.402,0.238c0.595,0.272,0.893,0.773,0.893,1.503
				c0,0.863-0.307,1.447-0.922,1.752c-0.338,0.165-0.813,0.247-1.42,0.247H420.448z"/>
			<g id="XMLID_70_">
				<path id="XMLID_72_" style="fill:#FFFFFF;" d="M431.531,324.188c1.055,0.852,2.273,1.277,3.653,1.277
					c1.673,0,2.974-0.504,3.902-1.513c0.598-0.635,0.933-1.26,1.006-1.875h-2.769c-0.161,0.304-0.347,0.542-0.558,0.713
					c-0.386,0.318-0.888,0.477-1.506,0.477c-0.583,0-1.081-0.13-1.495-0.391c-0.681-0.419-1.043-1.148-1.085-2.189h7.554
					c0.013-0.895-0.016-1.582-0.089-2.058c-0.126-0.813-0.402-1.528-0.827-2.144c-0.47-0.699-1.069-1.211-1.793-1.535
					c-0.722-0.324-1.536-0.486-2.439-0.486c-1.52,0-2.756,0.479-3.709,1.438c-0.953,0.958-1.429,2.336-1.429,4.133
					C429.949,321.953,430.476,323.337,431.531,324.188z M433.469,317.293c0.384-0.395,0.923-0.592,1.619-0.592
					c0.64,0,1.177,0.187,1.609,0.559c0.432,0.373,0.673,0.92,0.723,1.639h-4.673C432.845,318.223,433.086,317.688,433.469,317.293z"
					/>
				<rect id="XMLID_71_" x="431.862" y="311.892" style="fill:#FFFFFF;" width="6.096" height="1.416"/>
			</g>
		</g>
	</g>
	<g>
		<g id="XMLID_62_">
			<path id="XMLID_63_" style="fill:#808080;" d="M283.328,70.612L283.328,70.612c-11.064,0-20.033-8.969-20.033-20.033l0,0
				c0-11.064,8.969-20.033,20.033-20.033h0c11.064,0,20.033,8.969,20.033,20.033l0,0C303.361,61.643,294.392,70.612,283.328,70.612z
				"/>
		</g>
		<path id="XMLID_61_" style="fill-rule:evenodd;clip-rule:evenodd;fill:#FFFFFF;" d="M294.937,56.46v-0.005
			c-0.006-0.006-0.011-0.006-0.022-0.017c0,0,0,0-0.005,0l0,0c-0.283-0.18-0.572-0.207-0.751-0.272c-0.005,0-0.011,0-0.011-0.005
			c-1.23-0.387-2.292-1.225-3.086-2.248c-0.441-0.572-0.811-1.187-1.056-1.846c0-0.006,0-0.006,0-0.011
			c-0.098-0.283-0.104-0.599,0.038-0.79c0,0,0.005,0,0.005-0.005c0.223-0.316,0.632-0.517,1.061-0.675c0.006,0,0.006,0,0.006,0
			c0.485-0.169,1.007-0.359,1.437-0.741c0.005,0,0.005-0.006,0.011-0.006c0.065-0.06,0.147-0.141,0.207-0.266
			c0.011-0.027,0.027-0.06,0.033-0.098c0.033-0.114,0.033-0.256-0.027-0.376c0-0.005,0-0.005,0-0.005
			c-0.125-0.25-0.337-0.387-0.501-0.479h-0.006c-0.266-0.158-0.582-0.169-0.86-0.076l0,0h-0.006
			c-0.294,0.087-0.539,0.196-0.762,0.223c-0.005,0-0.011,0-0.017,0.006c-0.316,0.054-0.626,0.065-0.865-0.022
			c-0.005-0.033-0.005-0.104-0.016-0.191h0.005c-0.022-0.523,0.027-1.061,0.033-1.622c0,0,0,0,0-0.005
			c0.028-0.849,0.06-1.72-0.065-2.602c0-0.006,0-0.011,0-0.011c-0.277-1.486-1.23-2.765-2.439-3.615
			c-0.876-0.621-1.922-0.964-2.983-1.062l0,0c-0.365-0.033-0.719-0.044-1.072-0.044c-1.432,0.011-2.918,0.387-4.077,1.296
			c-0.871,0.681-1.557,1.584-1.987,2.591v0.005c-0.414,1.034-0.376,2.139-0.321,3.163l0,0c0.033,0.719,0.114,1.415,0.049,2.079
			c-0.005,0.022-0.005,0.033-0.011,0.044c-0.321,0.06-0.675,0.038-1.023-0.027h-0.005c-0.24-0.038-0.495-0.136-0.784-0.218
			c-0.005,0-0.011,0-0.017-0.005c-0.277-0.06-0.555,0.016-0.762,0.174c-0.005,0-0.011,0-0.011,0.005
			c-0.006,0.005-0.011,0.005-0.011,0.011c-0.174,0.109-0.409,0.299-0.419,0.626c-0.005,0.022,0,0.038,0,0.06
			c0.006,0,0,0.005,0.006,0.005c0.032,0.191,0.152,0.332,0.261,0.425c0.109,0.093,0.207,0.153,0.267,0.202
			c0.005,0,0.011,0.005,0.016,0.011c0.523,0.348,1.1,0.501,1.606,0.697l0,0c0.348,0.153,0.647,0.387,0.719,0.686
			c0.087,0.376-0.076,0.811-0.283,1.23v0.006c-0.566,1.111-1.405,2.079-2.439,2.792c-0.544,0.37-1.154,0.648-1.791,0.817
			c-0.005,0-0.016,0.006-0.027,0.011c-0.131,0.049-0.441,0.076-0.637,0.37c-0.011,0.022-0.022,0.044-0.033,0.071
			c-0.065,0.185,0.011,0.387,0.103,0.501c0.087,0.104,0.185,0.169,0.272,0.212c0.005,0,0.011,0.006,0.016,0.006
			c0.533,0.31,1.121,0.441,1.655,0.577c0.005,0,0.005,0.005,0.005,0.005c0.387,0.082,0.746,0.131,1.034,0.256
			c0.011,0.022,0.043,0.12,0.109,0.283c0.098,0.294,0.142,0.637,0.25,1.002c0.033,0.098,0.12,0.18,0.223,0.202
			c0.245,0.054,0.375-0.028,0.397-0.033c0.011,0,0.022,0,0.033,0c0.893-0.158,1.791-0.294,2.613-0.093l0,0
			c0.86,0.229,1.611,0.822,2.455,1.328v0.006l0,0c0.561,0.348,1.208,0.691,1.96,0.718l0,0c0,0,0,0,0.005,0
			c0.566,0.033,1.116-0.005,1.66-0.038c0.006,0,0.006,0,0.011,0c0.463-0.044,0.909-0.202,1.306-0.447
			c0.005-0.006,0.011-0.011,0.016-0.011c0.887-0.506,1.671-1.111,2.537-1.492h0.005c0.277-0.098,0.631-0.093,1.018-0.119
			c0.005,0,0.011,0,0.011,0c0.719-0.022,1.432,0.016,2.145,0.109c0.022,0.006,0.049,0.006,0.071,0
			c0.098-0.011,0.196-0.076,0.245-0.136c0.055-0.06,0.065-0.115,0.076-0.152c0.022-0.071,0.038-0.104,0.006-0.044
			c0.011-0.022,0.022-0.038,0.027-0.06c0.131-0.43,0.201-0.817,0.414-1.056c0.093-0.093,0.256-0.136,0.441-0.136
			c0.011,0,0.027,0,0.038,0c0.62-0.071,1.176-0.294,1.704-0.479c0.006-0.005,0.016-0.005,0.022-0.005
			c0.196-0.087,0.49-0.185,0.692-0.463c0,0,0,0,0-0.005l0,0C295.253,56.923,295.171,56.602,294.937,56.46L294.937,56.46z"/>
	</g>
</g>
<g id="Device">
	<g>
		<g>
			<defs>
				<path id="XMLID_4_" d="M329.7,454.586H169.657c-8.02,0-14.522-6.502-14.522-14.522V100.108c0-8.02,6.502-14.522,14.522-14.522
					H329.7c8.02,0,14.522,6.502,14.522,14.522v339.956C344.222,448.085,337.72,454.586,329.7,454.586z"/>
			</defs>
			<use xlink:href="#XMLID_4_"  style="overflow:visible;fill:#263238;"/>
			<clipPath id="XMLID_00000011750423543536157190000005044554168406330009_">
				<use xlink:href="#XMLID_4_"  style="overflow:visible;"/>
			</clipPath>
			<path style="opacity:0.2;clip-path:url(#XMLID_00000011750423543536157190000005044554168406330009_);fill:#FFFFFF;" d="
				M171.434,85.586c-9.001,0-16.298,7.297-16.298,16.299v336.403c0,5.022,2.275,9.51,5.847,12.5L271.296,85.586H171.434z"/>
			
				<path style="clip-path:url(#XMLID_00000011750423543536157190000005044554168406330009_);fill:none;stroke:#FFFFFF;stroke-linecap:round;stroke-linejoin:round;stroke-miterlimit:10;" d="
				M256.104,443.915c0-3.548-2.877-6.425-6.425-6.425c-3.548,0-6.425,2.876-6.425,6.425c0,3.549,2.877,6.425,6.425,6.425
				C253.227,450.34,256.104,447.463,256.104,443.915z"/>
			
				<use xlink:href="#XMLID_4_"  style="overflow:visible;fill:none;stroke:#263238;stroke-linecap:round;stroke-linejoin:round;stroke-miterlimit:10;"/>
		</g>
		
			<rect id="XMLID_3_" x="163.544" y="110.645" style="fill:#C6FF00;stroke:#263238;stroke-linecap:round;stroke-linejoin:round;stroke-miterlimit:10;" width="172.268" height="322.039"/>
		<circle style="fill:#263238;" cx="246.967" cy="288.521" r="78.993"/>
		<rect x="169.5" y="149.299" style="fill:#FFFFFF;" width="161.046" height="36.674"/>
		<rect x="169.5" y="390.071" style="fill:#FFFFFF;" width="161.046" height="36.674"/>
		<rect x="169.5" y="377.315" style="fill:#FFFFFF;" width="161.046" height="1.595"/>
		<rect x="169.5" y="384.491" style="fill:#FFFFFF;" width="161.046" height="1.594"/>
		<g>
			<g>
				
					<rect x="315.668" y="113.986" style="fill:none;stroke:#263238;stroke-width:0.8211;stroke-linecap:round;stroke-linejoin:round;stroke-miterlimit:10;" width="14.284" height="7.833"/>
				
					<rect x="315.668" y="113.986" style="fill:#263238;stroke:#263238;stroke-width:0.7251;stroke-linecap:round;stroke-linejoin:round;stroke-miterlimit:10;" width="11.139" height="7.833"/>
				
					<rect x="329.922" y="116.177" style="fill:#263238;stroke:#263238;stroke-width:0.7251;stroke-linecap:round;stroke-linejoin:round;stroke-miterlimit:10;" width="2.012" height="3.45"/>
			</g>
			<g>
				
					<rect x="167.423" y="116.416" style="fill:#263238;stroke:#263238;stroke-width:0.8831;stroke-linecap:round;stroke-linejoin:round;stroke-miterlimit:10;" width="2.619" height="4.489"/>
				
					<rect x="171.538" y="114.839" style="fill:#263238;stroke:#263238;stroke-width:0.8831;stroke-linecap:round;stroke-linejoin:round;stroke-miterlimit:10;" width="2.619" height="6.066"/>
				
					<rect x="175.653" y="112.977" style="fill:#263238;stroke:#263238;stroke-width:0.8831;stroke-linecap:round;stroke-linejoin:round;stroke-miterlimit:10;" width="2.619" height="7.928"/>
			</g>
		</g>
		<g>
			<rect x="166.322" y="126.175" style="fill:#263238;" width="165.424" height="12.435"/>
		</g>
	</g>
</g>
<g id="Character">
	<g>
		<defs>
			<path id="SVGID_1_" d="M438.671,153.266H237.306v59.734c-37.493,4.751-66.491,36.738-66.491,75.521
				c0,42.057,34.094,76.152,76.152,76.152c25.015,0,47.211-12.063,61.094-30.688h130.61V153.266z"/>
		</defs>
		<clipPath id="SVGID_00000150065078096256456180000001108023282260927112_">
			<use xlink:href="#SVGID_1_"  style="overflow:visible;"/>
		</clipPath>
		<g style="clip-path:url(#SVGID_00000150065078096256456180000001108023282260927112_);">
			<g>
				<g>
					<defs>
						<path id="XMLID_36_" d="M163.97,362.98c0,0,21.08-73.396,25.065-89.087c3.985-15.691,9.962-25.902,22.415-28.393
							c12.453-2.491,35.353-4.801,35.353-4.801s19.925-1.993,34.37-0.996c14.445,0.996,27.646,8.717,34.619,13.947
							c6.974,5.23,27.147,23.412,27.147,23.412l-2.491-41.842l18.181,1.494c0,0,13.2,58.28,14.944,68.989
							c1.743,10.71,1.743,15.442,0,16.687c-1.743,1.245,1.245,1.992-14.695-3.238c-15.94-5.23-34.619-12.453-44.831-15.442
							c-10.211-2.989-11.457-3.487-11.457-3.487s-24.986,37.614-32.956,48.821c-7.97,11.208-14.515,24.965-14.515,24.965"/>
					</defs>
					<use xlink:href="#XMLID_36_"  style="overflow:visible;fill:#FFFFFF;"/>
					<clipPath id="XMLID_00000132793286612865069170000009254961597804914098_">
						<use xlink:href="#XMLID_36_"  style="overflow:visible;"/>
					</clipPath>
					<path style="opacity:0.2;clip-path:url(#XMLID_00000132793286612865069170000009254961597804914098_);" d="M373.575,322.391
						c1.743-1.245,1.743-5.977,0-16.687c-1.04-6.389-6.158-29.708-10.118-47.484c1.577,20.969,2.179,41.521-1.049,45.354
						c-6.973,8.28-17.226-2.602-17.226-2.602l-1.949-16.138c0,0-34.864-25.712-47.939-30.07c-13.074-4.358-27.02-5.23-40.53-0.872
						c-13.51,4.358-24.841,8.716-33.121,16.996s-37.044,74.523-37.044,74.523l-3.249,19.672l73.771,8.928
						c0,0,6.545-13.758,14.515-24.965c7.97-11.208,32.956-48.821,32.956-48.821s1.245,0.498,11.457,3.487
						s28.891,10.211,44.831,15.442C374.82,324.384,371.831,323.637,373.575,322.391z"/>
					
						<use xlink:href="#XMLID_36_"  style="overflow:visible;fill:none;stroke:#263238;stroke-linecap:round;stroke-linejoin:round;stroke-miterlimit:10;"/>
				</g>
				<polyline style="fill:none;stroke:#263238;stroke-linecap:round;stroke-linejoin:round;stroke-miterlimit:10;" points="
					309.697,288.666 302.593,300.225 323.631,288.666 				"/>
				
					<path id="XMLID_44_" style="fill:#FFFFFF;stroke:#263238;stroke-linecap:round;stroke-linejoin:round;stroke-miterlimit:10;" d="
					M342.94,277.062c0,0,0.996,20.672,2.242,23.91s6.725,4.732,6.725,4.732"/>
			</g>
			<g>
				<path style="fill:#263238;" d="M233.191,276.43c0,0-2.717,6.454-1.359,6.454c1.359,0,10.19-3.397,14.267-3.397
					c4.076,0,8.492,7.133,8.492,7.133s11.889-8.832,15.626-7.813c1.78,0.485,3.56,1.742,4.936,2.924
					c1.057,0.908,2.691,0.197,2.745-1.196c0.071-1.826,0.132-4.327,0.132-7.503c0-7.473-6.454-27.854-18.343-28.873
					c-11.889-1.019-13.927,7.473-19.022,17.664C235.568,272.013,233.191,276.43,233.191,276.43z"/>
				
					<path id="XMLID_41_" style="fill:#FFFFFF;stroke:#263238;stroke-linecap:round;stroke-linejoin:round;stroke-miterlimit:10;" d="
					M258.758,232.481c0,0-11.457,1.494-16.687,6.476c-5.23,4.981-3.487,12.951-6.227,20.174c-2.74,7.223-7.472,21.917-4.981,21.668
					c2.491-0.249,11.208-7.223,13.698-5.479c2.491,1.743,8.219,8.966,9.215,9.464c0.996,0.498,13.698-8.717,15.442-9.713
					c1.743-0.996,10.211,9.962,10.461,6.974c0.249-2.989,0.747-20.672-0.996-31.382C276.939,239.952,264.486,232.73,258.758,232.481
					z"/>
			</g>
			<g>
				<g>
					<defs>
						<path id="XMLID_40_" d="M262.743,218.533c0,0-4.234,12.951-7.721,17.434c-3.487,4.483-4.981,5.23-6.226,15.691
							c-1.245,10.461,4.234,34.121,5.977,33.623c1.743-0.498,18.929-27.895,24.657-32.378c5.728-4.483,11.706-9.215,11.706-9.215
							s-13.947-4.234-18.679-10.211C267.724,227.499,262.743,218.533,262.743,218.533z"/>
					</defs>
					<use xlink:href="#XMLID_40_"  style="overflow:visible;fill:#FFFFFF;"/>
					<clipPath id="XMLID_00000016051553964851844230000017600629739560179606_">
						<use xlink:href="#XMLID_40_"  style="overflow:visible;"/>
					</clipPath>
					<path style="opacity:0.2;clip-path:url(#XMLID_00000016051553964851844230000017600629739560179606_);" d="M281.91,250.96
						c4.85-3.807,9.226-7.271,9.226-7.271s-13.947-4.234-18.679-10.212c-4.732-5.977-9.713-14.943-9.713-14.943
						s-2.398,7.334-5.071,12.875C259.776,237.357,265.66,247,281.91,250.96z"/>
					<path style="clip-path:url(#XMLID_00000016051553964851844230000017600629739560179606_);fill:#263238;" d="M272.456,233.477
						c-4.732-5.978-9.713-14.944-9.713-14.944s-1.423,4.349-3.297,8.878c1.557,4.486,4.668,11.168,10.233,15.11
						c4.685,3.319,10.39,5.306,14.763,6.448c3.741-2.943,6.693-5.281,6.693-5.281S277.189,239.454,272.456,233.477z"/>
					
						<use xlink:href="#XMLID_40_"  style="overflow:visible;fill:none;stroke:#263238;stroke-linecap:round;stroke-linejoin:round;stroke-miterlimit:10;"/>
				</g>
				<g>
					<g>
						<defs>
							<path id="XMLID_30_" d="M315.793,185.408c0,0-0.747,16.687-0.249,22.166c0.498,5.479,2.491,14.943-1.993,23.91
								c-4.483,8.966-8.219,14.695-12.453,16.189c-4.234,1.494-17.932-1.494-28.891-9.713
								c-10.959-8.219-12.951-25.155-14.695-30.634c-1.743-5.479,0.249-24.159,11.457-30.136s23.412-4.732,29.389-2.74
								C304.336,176.442,315.793,185.408,315.793,185.408z"/>
						</defs>
						<use xlink:href="#XMLID_30_"  style="overflow:visible;fill:#FFFFFF;"/>
						<clipPath id="XMLID_00000019641679518758784030000015297927841718232238_">
							<use xlink:href="#XMLID_30_"  style="overflow:visible;"/>
						</clipPath>
						<path style="opacity:0.2;clip-path:url(#XMLID_00000019641679518758784030000015297927841718232238_);" d="M268.969,177.189
							c-1.62,0.864-3.041,1.999-4.292,3.315l5.776,4.094c0,0,7.409-7.409,23.969,3.051c8.553,5.402,15.937,6.267,21.084,5.844
							c0.123-4.441,0.286-8.085,0.286-8.085s-11.457-8.966-17.434-10.959C292.381,172.457,280.177,171.212,268.969,177.189z"/>
						
							<use xlink:href="#XMLID_30_"  style="overflow:visible;fill:none;stroke:#263238;stroke-linecap:round;stroke-linejoin:round;stroke-miterlimit:10;"/>
					</g>
					<path style="fill:#263238;" d="M292.269,207.915c0,1.778-0.689,3.219-1.54,3.219s-1.539-1.441-1.539-3.219
						c0-1.778,0.689-3.219,1.539-3.219S292.269,206.137,292.269,207.915z"/>
					<path style="fill:#263238;" d="M310.462,209.595c0,1.778-0.689,3.219-1.539,3.219c-0.85,0-1.539-1.441-1.539-3.219
						c0-1.778,0.689-3.219,1.539-3.219C309.773,206.376,310.462,207.817,310.462,209.595z"/>
					<path id="XMLID_34_" style="fill:none;stroke:#263238;stroke-linecap:round;stroke-linejoin:round;stroke-miterlimit:10;" d="
						M305.581,204.835c0,0-4.732,4.732-3.487,6.725c1.245,1.993,4.133,3.115,3.238,5.977c-0.934,2.988-7.472,3.985-9.713,0"/>
					
						<path id="XMLID_33_" style="fill:#263238;stroke:#263238;stroke-linecap:round;stroke-linejoin:round;stroke-miterlimit:10;" d="
						M281.422,220.277c0,0,4.981,6.974,15.193,7.472c0,0-10.211,6.725-14.694,5.977
						C277.438,232.979,281.422,220.277,281.422,220.277z"/>
					<path id="XMLID_37_" style="fill:none;stroke:#263238;stroke-linecap:round;stroke-linejoin:round;stroke-miterlimit:10;" d="
						M283.805,198.421c0,0,4.345-6.046,13.036-2.267"/>
					<path id="XMLID_39_" style="fill:none;stroke:#263238;stroke-linecap:round;stroke-linejoin:round;stroke-miterlimit:10;" d="
						M307.325,198.609c0,0,5.471-1.262,7.464,3.969"/>
				</g>
				<g>
					<defs>
						<path id="XMLID_32_" d="M259.256,214.05c0,0,2.241-9.713,7.721-13.2c5.479-3.487,10.71-2.74,7.472-7.472
							c-3.238-4.732-4.981-9.464,1.992-11.706c6.974-2.242,20.672,1.494,28.642,4.483c7.97,2.989,23.412,3.985,27.397-7.223
							c2.462-6.924-4.737-12.43-10.024-15.264c-5.822-3.121-12.367-4.669-18.941-3.511c-3.961,0.697-7.811,2.262-11.819,2.667
							c-6.763,0.684-12.734-2.459-19.489-0.824c-5.566,1.347-10.837,4.488-14.446,8.963
							C251.535,178.684,249.792,192.631,259.256,214.05z"/>
					</defs>
					<use xlink:href="#XMLID_32_"  style="overflow:visible;fill:#263238;"/>
					<clipPath id="XMLID_00000052794092233131036580000001577375464606874014_">
						<use xlink:href="#XMLID_32_"  style="overflow:visible;"/>
					</clipPath>
					
						<path style="clip-path:url(#XMLID_00000052794092233131036580000001577375464606874014_);fill:none;stroke:#808080;stroke-linecap:round;stroke-linejoin:round;stroke-miterlimit:10;" d="
						M316.933,159.689c0,0,12.941,6.988,3.882,18.634c-9.058,11.646-17.599,3.623-39.081-0.518
						c-21.481-4.141-34.163,6.47-34.163,6.47"/>
					
						<path style="clip-path:url(#XMLID_00000052794092233131036580000001577375464606874014_);fill:none;stroke:#808080;stroke-linecap:round;stroke-linejoin:round;stroke-miterlimit:10;" d="
						M249.382,196.958c0,0,4.141-8.023,17.599-10.353c13.458-2.329,14.235-0.259,14.235-0.259"/>
					
						<use xlink:href="#XMLID_32_"  style="overflow:visible;fill:none;stroke:#263238;stroke-linecap:round;stroke-linejoin:round;stroke-miterlimit:10;"/>
				</g>
				
					<path id="XMLID_31_" style="fill:#FFFFFF;stroke:#263238;stroke-linecap:round;stroke-linejoin:round;stroke-miterlimit:10;" d="
					M264.892,210.515c0,0-6.462-14.792-12.155-7.094s4.625,17.44,12.36,15.545"/>
			</g>
			<g>
				
					<path id="XMLID_55_" style="fill:#FFFFFF;stroke:#263238;stroke-linecap:round;stroke-linejoin:round;stroke-miterlimit:10;" d="
					M335.219,208.82c0,0-4.234-0.498-4.981,2.989c-0.747,3.487-1.494,8.966,0,8.966c1.494,0,4.234-0.747,5.23-2.989
					c0.996-2.242,1.992-9.215,1.992-9.215L335.219,208.82z"/>
				
					<path id="XMLID_46_" style="fill:#FFFFFF;stroke:#263238;stroke-linecap:round;stroke-linejoin:round;stroke-miterlimit:10;" d="
					M341.944,207.575c0,0-5.977-0.996-6.725,1.245c-0.747,2.242-1.743,9.962-0.996,10.211c0.747,0.249,5.23-1.743,5.23-1.743
					L341.944,207.575z"/>
				
					<path id="XMLID_53_" style="fill:#FFFFFF;stroke:#263238;stroke-linecap:round;stroke-linejoin:round;stroke-miterlimit:10;" d="
					M349.914,208.073c0,0-6.974-4.483-8.717-2.242c-1.743,2.242-1.743,11.457-1.743,11.457s2.241,0.498,3.487-0.996
					c1.245-1.494,2.74-3.487,2.74-3.487s4.981,1.245,5.728,0.996c0.747-0.249,2.491,0,1.992-2.491
					C352.903,208.82,349.914,208.073,349.914,208.073z"/>
				
					<path id="XMLID_52_" style="fill:#FFFFFF;stroke:#263238;stroke-linecap:round;stroke-linejoin:round;stroke-miterlimit:10;" d="
					M359.378,212.556c0,0-4.981-3.238-7.472-8.468c-2.491-5.23-3.736-4.981-4.981-2.74c-1.245,2.242,0.249,4.483,1.245,6.476
					c0.996,1.992,5.23,6.725,5.23,6.725L359.378,212.556z"/>
			</g>
			<path id="XMLID_56_" style="fill:#C6FF00;stroke:#263238;stroke-linecap:round;stroke-linejoin:round;stroke-miterlimit:10;" d="
				M314.58,247.405c0,0-3.61,30.828-3.055,32.494c0.556,1.666,6.665,3.611,8.054,2.5c1.389-1.111,0.556-3.333,0-4.721
				c-0.555-1.389,4.721-27.217,4.721-27.217L314.58,247.405z"/>
			<g id="XMLID_54_">
				<g>
					<g>
						<defs>
							<path id="XMLID_43_" d="M223.63,258.082l18.278,57.088c0,0,42.012-24.459,51.842-37.215
								c9.83-12.756,15.524-27.157,18.971-28.508c3.448-1.35,15.759,2.015,17.562,3.953s1.373,4.194-0.807,6.254
								c-2.18,2.059-3.417,2.346-3.417,2.346s-0.113,4.489-1.086,5.266c-0.973,0.777-0.754-0.226-0.973,0.777
								c-0.219,1.003-0.438,2.007-1.154,3.025c-0.717,1.018-0.951,1.524-1.69,1.795c-0.739,0.272-0.241,0.257-4.443,1.38
								c-4.202,1.124-6.442,1.192-8.177,1.493c-1.735,0.302-13.021,22.571-23.583,35.847
								c-10.562,13.277-44.027,43.693-49.255,43.851c-5.228,0.158-36.09-50.779-42.698-63.286"/>
						</defs>
						<use xlink:href="#XMLID_43_"  style="overflow:visible;fill:#FFFFFF;"/>
						<clipPath id="XMLID_00000106851165493063944200000000066319895774220426_">
							<use xlink:href="#XMLID_43_"  style="overflow:visible;"/>
						</clipPath>
						<path style="opacity:0.2;clip-path:url(#XMLID_00000106851165493063944200000000066319895774220426_);" d="M322.846,271.068
							c0.717-1.018,0.935-2.022,1.154-3.025c0.219-1.003,0,0,0.973-0.777c0.973-0.777,1.087-5.266,1.087-5.266
							s1.237-0.287,3.417-2.346c2.18-2.059,2.61-4.315,0.807-6.254c-1.803-1.939-14.114-5.304-17.562-3.954
							c-0.901,0.353-1.958,1.604-3.2,3.479c1.832,3.016,3.944,4.831,1.978,10.074c-3,8-10,18-16,26.5s-56,55.5-62,54.5
							c-4.899-0.816-19.128-17.963-24.186-24.228c10.833,17.387,23.24,35.759,26.383,35.664
							c5.228-0.158,38.693-30.574,49.255-43.851c10.562-13.277,21.848-35.546,23.583-35.847c1.735-0.302,3.976-0.37,8.177-1.493
							s3.704-1.109,4.443-1.38C321.895,272.592,322.129,272.086,322.846,271.068z"/>
						
							<use xlink:href="#XMLID_43_"  style="overflow:visible;fill:none;stroke:#263238;stroke-linecap:round;stroke-linejoin:round;stroke-miterlimit:10;"/>
					</g>
					<path style="fill:none;stroke:#263238;stroke-linecap:round;stroke-linejoin:round;stroke-miterlimit:10;" d="M241.909,315.17
						c0,0-4.785,0.202-8.849,12.975"/>
				</g>
				<g>
					<defs>
						<path id="XMLID_60_" d="M316.712,274.244c4.202-1.124,3.704-1.109,4.443-1.38c0.739-0.272,0.973-0.777,1.69-1.795
							c0.717-1.018,0.935-2.022,1.154-3.025c0.219-1.003,0.866-1.345,1.84-2.122c0.973-0.777,0.22-3.921,0.22-3.921
							s1.237-0.287,3.417-2.346c2.18-2.059,2.61-4.315,0.807-6.254s-14.114-5.304-17.562-3.953
							c-3.302,1.293-8.668,14.559-17.752,26.885l8.415,6.897c2.643-4.396,4.522-7.383,5.15-7.492
							C310.27,275.435,312.511,275.368,316.712,274.244z"/>
					</defs>
					<use xlink:href="#XMLID_60_"  style="overflow:visible;fill:#FFFFFF;"/>
					<clipPath id="XMLID_00000163040128669314978220000003034735539337717179_">
						<use xlink:href="#XMLID_60_"  style="overflow:visible;"/>
					</clipPath>
					<path style="opacity:0.2;clip-path:url(#XMLID_00000163040128669314978220000003034735539337717179_);" d="M322.846,271.068
						c0.717-1.018,0.935-2.022,1.154-3.025c0.219-1.003,0,0,0.973-0.777c0.973-0.777,1.087-5.266,1.087-5.266
						s1.237-0.287,3.417-2.346c2.18-2.059,2.61-4.315,0.807-6.254c-1.803-1.939-14.114-5.304-17.562-3.954
						c-0.901,0.353-1.958,1.604-3.2,3.479c1.832,3.016,3.944,4.831,1.978,10.074c-3,8-10,18-16,26.5s-56,55.5-62,54.5
						c-4.899-0.816-19.128-17.963-24.186-24.228c10.833,17.387,23.24,35.759,26.383,35.664c5.228-0.158,38.693-30.574,49.255-43.851
						c10.562-13.277,21.848-35.546,23.583-35.847c1.735-0.302,3.976-0.37,8.177-1.493s3.704-1.109,4.443-1.38
						C321.895,272.592,322.129,272.086,322.846,271.068z"/>
					
						<use xlink:href="#XMLID_60_"  style="overflow:visible;fill:none;stroke:#263238;stroke-linecap:round;stroke-linejoin:round;stroke-miterlimit:10;"/>
				</g>
			</g>
			<g id="XMLID_2_">
				<g id="XMLID_1_">
					
						<path id="XMLID_49_" style="fill:#C6FF00;stroke:#263238;stroke-linecap:round;stroke-linejoin:round;stroke-miterlimit:10;" d="
						M305.83,227.25c-2.751,0-4.981,3.959-4.981,8.842s2.23,8.842,4.981,8.842l61.02,18.43v-55.291L305.83,227.25z"/>
					<g>
						
							<line style="fill:none;stroke:#263238;stroke-linecap:round;stroke-linejoin:round;stroke-miterlimit:10;" x1="340.153" y1="219.893" x2="316.352" y2="226.74"/>
						
							<line style="fill:none;stroke:#263238;stroke-linecap:round;stroke-linejoin:round;stroke-miterlimit:10;" x1="348.107" y1="217.605" x2="343.127" y2="219.037"/>
					</g>
					
						<path id="XMLID_5_" style="fill:#263238;stroke:#263238;stroke-linecap:round;stroke-linejoin:round;stroke-miterlimit:10;" d="
						M313.644,224.795l-7.813,2.456c-2.751,0-4.981,3.959-4.981,8.842s2.23,8.842,4.981,8.842l7.047,2.128
						C308.316,236.906,311.492,228.641,313.644,224.795z"/>
				</g>
				
					<ellipse id="XMLID_42_" style="fill:#D6D6D6;stroke:#263238;stroke-linecap:round;stroke-linejoin:round;stroke-miterlimit:10;" cx="372.08" cy="236.092" rx="20.917" ry="37.129"/>
				
					<polyline id="XMLID_47_" style="fill:#D6D6D6;stroke:#263238;stroke-linecap:round;stroke-linejoin:round;stroke-miterlimit:10;" points="
					372.08,227.854 352.155,222.518 350.412,236.715 352.654,251.16 372.08,244.33 372.827,228.247 				"/>
				
					<path id="XMLID_51_" style="fill:#263238;stroke:#263238;stroke-linecap:round;stroke-linejoin:round;stroke-miterlimit:10;" d="
					M372.08,195.62c-12.593,0-22.801,18.12-22.801,40.472c0,22.352,10.208,40.472,22.801,40.472s22.801-18.12,22.801-40.472
					C394.881,213.74,384.673,195.62,372.08,195.62z M372.644,270.817c-10.493,0-19-15.547-19-34.725
					c0-19.178,8.507-34.725,19-34.725c10.493,0,19,15.547,19,34.725C391.644,255.27,383.137,270.817,372.644,270.817z"/>
				
					<ellipse id="XMLID_45_" style="fill:#C6FF00;stroke:#263238;stroke-linecap:round;stroke-linejoin:round;stroke-miterlimit:10;" cx="372.08" cy="236.092" rx="4.641" ry="8.238"/>
			</g>
		</g>
		<g style="clip-path:url(#SVGID_00000150065078096256456180000001108023282260927112_);">
			
				<line style="fill:none;stroke:#263238;stroke-linecap:round;stroke-linejoin:round;stroke-miterlimit:10;" x1="430.878" y1="194.107" x2="435.507" y2="192.674"/>
			
				<line style="fill:none;stroke:#263238;stroke-linecap:round;stroke-linejoin:round;stroke-miterlimit:10;" x1="397.73" y1="204.367" x2="425.174" y2="195.873"/>
			
				<line style="fill:none;stroke:#263238;stroke-linecap:round;stroke-linejoin:round;stroke-miterlimit:10;" x1="401.328" y1="234.049" x2="426.512" y2="234.948"/>
			
				<line style="fill:none;stroke:#263238;stroke-linecap:round;stroke-linejoin:round;stroke-miterlimit:10;" x1="422.194" y1="271.042" x2="427.412" y2="272.725"/>
			
				<line style="fill:none;stroke:#263238;stroke-linecap:round;stroke-linejoin:round;stroke-miterlimit:10;" x1="399.529" y1="263.73" x2="418.053" y2="269.706"/>
			
				<line style="fill:none;stroke:#263238;stroke-linecap:round;stroke-linejoin:round;stroke-miterlimit:10;" x1="400.428" y1="217.859" x2="413.92" y2="216.06"/>
			
				<line style="fill:none;stroke:#263238;stroke-linecap:round;stroke-linejoin:round;stroke-miterlimit:10;" x1="394.132" y1="273.624" x2="404.026" y2="281.719"/>
		</g>
	</g>
</g>
</svg>
