<svg fill="#000000" width="30px" height="70px" viewBox="0 0 2.1 2.1" id="job" data-name="Flat Color" xmlns="http://www.w3.org/2000/svg" class="icon flat-color">
  <path id="secondary" d="M1.4 0.7H0.7a0.087 0.087 0 0 1 -0.087 -0.087V0.35a0.175 0.175 0 0 1 0.175 -0.175h0.525a0.175 0.175 0 0 1 0.175 0.175v0.262a0.087 0.087 0 0 1 -0.087 0.087M0.787 0.525h0.525V0.35H0.787Z" style="fill: rgb(255, 255, 255);"/>

  <path id="primary" x="2" y="6" width="20" height="16" rx="2" style="fill: rgb(110, 240, 0);" d="M0.35 0.525H1.75A0.175 0.175 0 0 1 1.925 0.7V1.75A0.175 0.175 0 0 1 1.75 1.925H0.35A0.175 0.175 0 0 1 0.175 1.75V0.7A0.175 0.175 0 0 1 0.35 0.525z"/>
  
  <path id="secondary-2" data-name="secondary" d="M1.313 1.225a0.087 0.087 0 0 1 -0.087 -0.087v-0.087H0.612a0.087 0.087 0 0 1 0 -0.175h0.875a0.087 0.087 0 0 1 0 0.175h-0.087v0.087a0.087 0.087 0 0 1 -0.087 0.087" style="fill: rgb(255, 255, 255);"/>
</svg>
