<svg width="30" height="30" viewBox="0 0 37.5 37.5" xml:space="preserve" xmlns="http://www.w3.org/2000/svg"><path d="M24.459 29.875c-1.262-.033-3.1-.291-3.355-1.494-.106-.5-.09-.938-.009-1.313h-4.689c.081.374.097.813-.009 1.313-.255 1.203-2.093 1.461-3.355 1.494a2.13 2.13 0 0 0-1.82 1.123h15.057a2.13 2.13 0 0 0-1.82-1.123m6.207-23.373H6.834c-.621 0-1.125.504-1.125 1.125v1.892h26.083V7.627c0-.621-.504-1.125-1.125-1.125m-6.746 1.839a.47.47 0 0 1-.331.138h-1.05a.47.47 0 0 1-.331-.8.47.47 0 0 1 .331-.138h1.05a.47.47 0 0 1 .331.8m3.131 0a.47.47 0 0 1-.331.138h-1.05a.47.47 0 0 1-.331-.8.47.47 0 0 1 .331-.138h1.05a.47.47 0 0 1 .331.8m3.131 0a.47.47 0 0 1-.331.138h-1.05a.47.47 0 0 1-.331-.8.47.47 0 0 1 .331-.138h1.05a.47.47 0 0 1 .331.8M5.709 25.007c0 .621.504 1.125 1.125 1.125h23.833c.621 0 1.125-.504 1.125-1.125V23.97H5.709zm7.707-14.551v12.577h18.376V10.456zm1.905 1.132h7.824a.469.469 0 0 1 0 .938H15.32a.469.469 0 0 1 0-.938m8.293 2.344c0 .259-.21.469-.469.469h-2.079a.469.469 0 0 1 0-.938h2.079c.259 0 .469.21.469.469m-4.237 0c0 .259-.21.469-.469.469h-2.079a.469.469 0 0 1 0-.938h2.079c.259 0 .469.21.469.469m-4.056 1.406h4.808a.469.469 0 0 1 .332.8.47.47 0 0 1-.331.137H15.32a.469.469 0 0 1 0-.938m1.666 4.688H15.32a.469.469 0 0 1 0-.938h1.666a.469.469 0 0 1 0 .938m3.833 0h-1.666a.469.469 0 0 1 0-.938h1.666a.469.469 0 0 1 0 .938m.817-1.875h-3.3a.469.469 0 0 1 0-.938h3.3a.469.469 0 0 1 0 .938m8.25 3.75h-7.313a.469.469 0 0 1 0-.938h7.313a.469.469 0 0 1 0 .938m-7.369-2.344c0-.259.21-.469.469-.469h1.666a.469.469 0 0 1 0 .938h-1.666a.47.47 0 0 1-.469-.469m3.833 0c0-.259.21-.469.469-.469h3.043a.469.469 0 0 1 0 .938h-3.043a.47.47 0 0 1-.469-.469m3.535-1.406h-6.284a.469.469 0 0 1 0-.938h6.285a.469.469 0 0 1 0 .938m0-1.875h-7.568a.469.469 0 0 1 0-.938h7.568a.469.469 0 0 1 0 .938m0-1.875h-4.583a.469.469 0 0 1 0-.938h4.583a.469.469 0 0 1 0 .938M5.709 10.456v12.577h6.769V10.456zm1.714 6.757h1.713a.469.469 0 0 1 0 .938H7.423a.469.469 0 0 1 0-.938m-.469-1.406c0-.259.21-.469.469-.469h.691a.469.469 0 0 1 0 .938h-.691a.47.47 0 0 1-.469-.469m3.81 6.094H8.7a.469.469 0 0 1 0-.938h2.064a.469.469 0 0 1 0 .938m0-1.875H7.422a.469.469 0 0 1 0-.938h3.342a.469.469 0 0 1 0 .938m0-3.75h-.691a.469.469 0 0 1 0-.938h.691a.469.469 0 0 1 0 .938m0-1.875H8.7a.469.469 0 0 1 0-.938h2.064a.469.469 0 0 1 0 .938m0-1.875H7.422a.469.469 0 0 1 0-.938h3.342a.469.469 0 0 1 0 .938" style="fill:#5dd62c"/></svg>
